<?xml version="1.0" encoding="UTF-8" standalone="no"?>
<!-- Created with Inkscape (http://www.inkscape.org/) -->

<svg
   xmlns:dc="http://purl.org/dc/elements/1.1/"
   xmlns:cc="http://creativecommons.org/ns#"
   xmlns:rdf="http://www.w3.org/1999/02/22-rdf-syntax-ns#"
   xmlns:svg="http://www.w3.org/2000/svg"
   xmlns="http://www.w3.org/2000/svg"
   xmlns:sodipodi="http://sodipodi.sourceforge.net/DTD/sodipodi-0.dtd"
   xmlns:inkscape="http://www.inkscape.org/namespaces/inkscape"
   width="124.76994mm"
   height="124.76994mm"
   viewBox="0 0 124.76994 124.76994"
   version="1.1"
   id="svg8"
   inkscape:version="0.92.3 (2405546, 2018-03-11)"
   sodipodi:docname="neco-.svg">
  <defs
     id="defs2" />
  <sodipodi:namedview
     id="base"
     pagecolor="#ffffff"
     bordercolor="#666666"
     borderopacity="1.0"
     inkscape:pageopacity="0.0"
     inkscape:pageshadow="2"
     inkscape:zoom="1.4142136"
     inkscape:cx="153.73213"
     inkscape:cy="232.02639"
     inkscape:document-units="mm"
     inkscape:current-layer="layer2"
     showgrid="false"
     fit-margin-top="0"
     fit-margin-left="0"
     fit-margin-right="0"
     fit-margin-bottom="0"
     inkscape:pagecheckerboard="true"
     inkscape:window-width="1920"
     inkscape:window-height="1027"
     inkscape:window-x="-8"
     inkscape:window-y="426"
     inkscape:window-maximized="1" />
  <metadata
     id="metadata5">
    <rdf:RDF>
      <cc:Work
         rdf:about="">
        <dc:format>image/svg+xml</dc:format>
        <dc:type
           rdf:resource="http://purl.org/dc/dcmitype/StillImage" />
        <dc:title />
      </cc:Work>
    </rdf:RDF>
  </metadata>
  <g
     inkscape:groupmode="layer"
     id="layer2"
     inkscape:label="Layer 2"
     style="display:inline;opacity:1">
    <path
       style="opacity:1;fill:#936c2e;fill-opacity:1;stroke:none;stroke-width:0.99999994px;stroke-linecap:butt;stroke-linejoin:miter;stroke-opacity:1"
       d="m 374.95416,69.944714 c -22.33006,22.52571 -37.84674,45.965446 -37.84674,45.965446 l -11.86395,9.53467 c 0,0 0.52975,6.7593 0.38934,10.82275 C 262.07483,104.53123 226.56777,90.957515 190.91797,91.248047 51.122319,92.38737 3.4916985,210.00942 7.5761719,280.14844 17.799733,455.70853 188.93907,459.83293 209.27539,460.25 c 20.33632,0.41707 152.42438,-1.65306 216.38281,-172.04297 1.78401,1.41549 4.00368,3.13923 6.40722,4.96624 12.76355,5.84488 18.40727,9.01179 13.97584,-7.53961 -3.90273,-10.18856 -9.81797,-22.08856 -13.71118,-28.98327 2.32377,-17.18654 3.31807,-37.91914 -0.53711,-56.3418 -6.18395,-29.55109 -5.36851,-62.73826 -2.3802,-90.07595 3.22475,-68.456904 -20.71485,-65.015218 -54.45861,-40.287926 z M 279.27405,287.0594 c 0,0 1.27258,7.9596 1.94275,10.6281 0.38532,1.53428 6.90565,3.47903 10.16601,3.31445 2.66421,-0.13449 6.04765,-2.10623 10.62305,-4.38086 -2.67547,24.26105 -13.33945,38.38655 -23.99024,56.31641 -7.1702,3.11974 -11.74737,6.55182 -17.26171,6.40234 -8.59618,-0.23304 -9.07063,-4.79047 -12.83594,-8.89453 -1.91931,-10.17775 -7.60547,-41.47851 -7.60547,-41.47851 0,0 13.42283,-26.5547 19.70508,-30.57227 16.02094,-0.75955 6.80394,13.94489 19.25647,8.66487 z"
       id="path827"
       inkscape:connector-curvature="0"
       transform="scale(0.26458333)"
       sodipodi:nodetypes="ccccsssccccscccssccccccc" />
    <path
       sodipodi:nodetypes="ccscccccccc"
       inkscape:connector-curvature="0"
       id="path885"
       d="M 86.883476,34.571489 C 86.510921,33.947787 86.315915,33.634926 86.054,33.190611 c -0.492404,-2.76458 -1.599332,-6.040632 -1.59768,-7.680972 4.1e-4,-0.407452 2.653142,2.329302 4.736684,5.158257 l 0.730662,1.765437 -1.273288,-1.284564 0.149921,0.912058 -0.640196,-0.530781 0.673605,3.10325 -2.009951,-2.032502 z"
       style="opacity:1;fill:#28170b;fill-opacity:1;stroke:none;stroke-width:0.26458332px;stroke-linecap:butt;stroke-linejoin:miter;stroke-opacity:1" />
    <path
       style="fill:#ffffff;stroke:none;stroke-width:0.26458332px;stroke-linecap:butt;stroke-linejoin:miter;stroke-opacity:1"
       d="m 121.97529,5.8444629 c -2.41766,2.1980798 -5.16832,5.7232411 -6.6526,13.6235601 -1.48428,7.900319 -1.71498,9.778625 -1.71498,9.778625 -0.74395,-3.240405 -1.11279,-6.828311 -1.12062,-8.685093 -1.67801,1.648947 -1.37827,4.363847 -1.54836,1.680191 -0.0596,-0.940928 -0.12088,-4.368656 0.37183,-7.150467 -4.30286,2.559465 -7.49729,6.231922 -7.54402,5.909343 -0.0517,-0.357114 0.36463,-2.908353 1.60395,-5.348077 -2.66145,1.396287 -3.1538,1.748364 -6.16387,2.85366 0,0 4.25499,-4.450511 8.70644,-7.275206 4.45145,-2.8246938 6.59433,-3.6158119 14.06223,-5.3865361 z"
       id="path889"
       inkscape:connector-curvature="0"
       sodipodi:nodetypes="czccscscczc" />
    <path
       style="fill:#28170b;fill-opacity:1;stroke:none;stroke-width:0.26458332px;stroke-linecap:butt;stroke-linejoin:miter;stroke-opacity:1"
       d="m 63.582681,81.747465 c 5.663279,-0.191513 8.962075,-2.446035 8.839469,-5.24162 0.663403,-0.228727 1.075119,-0.360088 1.469108,-0.554713 0.07523,-2.641963 2.892073,-6.565928 4.87131,-7.912557 0.02564,-1.35207 -0.121099,-1.900809 -0.216992,-2.54301 -0.12707,-0.850991 -0.568894,3.488639 -1.679611,-2.068679 -0.103237,-0.516532 -1.904514,3.640015 -1.077169,-0.467247 0.106039,-0.526419 -1.20532,1.972355 -0.997764,0.838165 0.23461,-1.282026 -0.664599,0.06117 -0.930155,0.41672 0.271512,-2.816178 -0.641865,-4.498175 -0.946048,-5.68099 -0.841376,-3.271686 -5.861936,-6.325451 -10.332846,-6.095924 -7.347775,0.377218 -13.244665,8.283387 -8.641845,12.611555 4.62715,4.351047 5.734766,6.745716 6.754378,9.758905 0.893501,1.37392 2.525197,5.642826 2.888165,6.939395 z"
       id="path828"
       inkscape:connector-curvature="0"
       sodipodi:nodetypes="ccccsssscssscc" />
    <path
       style="fill:#28170b;stroke:none;stroke-width:0.26458332px;stroke-linecap:butt;stroke-linejoin:miter;stroke-opacity:1;fill-opacity:1"
       d="m 85.335821,59.967105 c 0,0 1.306847,2.947562 1.324266,3.973575 0.01742,1.026014 -1.417813,3.930921 -1.417813,3.930921 0,0 0.98182,-2.538378 1.006159,-3.894053 0.02434,-1.355675 -0.912612,-4.010443 -0.912612,-4.010443 z"
       id="path830"
       inkscape:connector-curvature="0"
       sodipodi:nodetypes="czczc" />
    <path
       style="display:inline;opacity:1;fill:#28170b;stroke:none;stroke-width:0.17065346px;stroke-linecap:butt;stroke-linejoin:miter;stroke-opacity:1;fill-opacity:1"
       d="m 94.073203,73.889441 c 0,0 -1.548324,-0.94104 -2.122591,-1.014021 -0.57427,-0.07298 -2.096819,0.725562 -2.096819,0.725562 0,0 1.305954,-0.414281 2.065917,-0.352898 0.759961,0.06138 2.153493,0.641357 2.153493,0.641357 z"
       id="path830-4"
       inkscape:connector-curvature="0"
       sodipodi:nodetypes="czczc" />
    <path
       sodipodi:nodetypes="cssscsccc"
       inkscape:connector-curvature="0"
       id="path849"
       d="m 118.01503,75.573905 c 0.006,0.118905 0.0278,0.667735 -0.0648,0.553135 -0.35486,-0.439107 -2.3028,-2.591889 -1.6516,-1.337551 0.9097,1.752221 -3.78277,-3.472552 -3.20845,-2.394396 2.03186,3.814402 2.61589,5.554083 2.61589,5.554083 0,0 -2.43722,-2.343283 -2.21207,-1.846455 0.49152,1.084594 0.82331,1.466039 0.82331,1.466039 0,0 6.2541,5.062309 5.91209,4.167223 -0.342,-0.895088 -2.21432,-6.162078 -2.21432,-6.162078 z"
       style="opacity:1;fill:#28170b;fill-opacity:1;stroke:none;stroke-width:0.26458332px;stroke-linecap:butt;stroke-linejoin:miter;stroke-opacity:1" />
    <path
       style="fill:#ffffff;stroke:none;stroke-width:0.99999994px;stroke-linecap:butt;stroke-linejoin:miter;stroke-opacity:1"
       d="m 238.91326,194.12284 c -26.33545,-0.57344 -52.7929,16.64564 -46.35076,44.29318 11.32063,8.15566 16.67821,12.43919 24.75586,24.42187 7.94564,11.78684 12.07824,19.90128 12.07824,19.90128 0,0 0.72908,-2.41207 5.26356,-0.49698 1.30829,-3.12305 4.87256,-5.06212 9.13672,-2.10938 1.04565,-1.87972 4.98516,-3.37725 8.94726,0.42578 2.17081,2.08366 3.41221,1.42968 7.38867,0.30664 -2.61557,-0.17971 -5.45181,-3.70477 -3.44922,-5.52929 -1.59204,-0.96083 -1.94917,-4.82973 0.22266,-5.91992 -1.85964,-1.63349 -0.99293,-4.36316 0.84375,-5.34375 15.22986,-8.13112 15.80676,-4.77145 20.375,-17 8.77972,-26.739 -4.02508,-52.18326 -39.21174,-52.94943 z m -1.53826,8.19943 c 21.332,0 38.625,12.75988 38.625,28.5 0,15.74012 -17.293,28.5 -38.625,28.5 -21.332,0 -38.625,-12.75988 -38.625,-28.5 0,-15.74012 17.293,-28.5 38.625,-28.5 z"
       id="path851"
       transform="scale(0.26458333)"
       inkscape:connector-curvature="0"
       sodipodi:nodetypes="scscccscccscssssss" />
    <path
       inkscape:connector-curvature="0"
       style="fill:#cecfd2;stroke-width:22.11931419"
       d="m 56.422663,39.407736 c -5.266515,1.98957 4.564301,2.691766 9.830798,5.73464 5.149479,2.925836 -5.383533,6.3198 -9.011567,8.192334 -3.510998,1.872535 0.351057,3.97914 6.553872,4.681337 5.149462,0.468075 1.053336,4.564301 -2.223641,4.33023 -4.447266,-0.234037 -1.872535,-3.510998 1.521411,-2.925821 -3.628034,-1.287374 -6.319817,2.925821 -1.872535,3.393963 4.447266,0.468075 9.128603,-5.032443 3.979124,-5.500569 -6.08573,-0.585094 -9.479692,-1.63843 -5.851659,-3.628033 3.510998,-1.872535 14.161046,-5.851675 9.011567,-8.777513 -5.149462,-2.925838 -15.097313,-3.042873 -10.181905,-5.73464 4.915408,-2.574731 4.213195,-3.393962 4.213195,-3.393962 0,0 -0.70228,1.63843 -5.851659,3.581226 z"
       id="path862" />
  </g>
</svg>
