<svg xmlns="http://www.w3.org/2000/svg" viewBox="0 0 27.3 27.5"><g><g transform="matrix(0.2646,0,0,0.2646,-13.3,-22.3)"><path transform="scale(.2646)" d="M346.7 395.1c-91.7 0-157.1 63-156.3 162.4.6 87.9 70.7 155.1 173.1 155.4 86.9-1.1 159.6-65.8 159.8-162.1 2.2-.9 3.7-1.8 6.1-3 12.1 5.2 28.1 6.8 32 4.5 2.2-1.3-8.3-24.5-24.4-47.6-4-13.9-9-27.2-13.2-35-43.9-44.5-17.6-26.4-50.2-33.7-32.9-8.2-56.5-41.1-126.85-40.9zm90.1 160.1c8.1 10.1 5.8 11 22.1 10.2 8.3-.4-.2.4 28.8 1.4-.8 8.1-.8 8.9-4.4 17.3-1.3-9.4-7-10.5-10.9-9.7-8.6-11.7-30 15-49.5 45.6-5.4 2.3-8.9 3.8-12 5.3-4.1 0-4.8.1-6.4 0-3.6-.5-4.1-3.7-7.4-6.5-.7-12.8-2-31.9-7.2-37.5 5.7 1.7 31.7-1.8 29.3-17.1 6.6 1.4 15.3-7.7 17.8-9z" style="fill:#000"/><path d="M149.2 101.2c-11.8-.5-14.6 23.2-14.6 23.2s-17.8-25.0-1.7-35.7" style="fill:none;stroke:#000;stroke-width:8.2;stroke-linecap:round"/><path d="M112.7 135.9c0 5.2-2.8 6.5-4.7 7.5-1.5.8-1 1.2-1 1.8-.2.4-.2.5-.2.7 0 .2.2.5.6.7 0 .3.1.5.1.6-.5.1-.6 0-1.1 0-.5-1.2-2.1-1-2.3-.5-1-.6-1.8.1-1.9.5-.9-.3-1 0-1.7.2-2-3.8-3-4.9-8.3-10.4-.2-5.6 4.6-9.5 10.334-9.5 5.6.2 10 3.5 10.166 8.4z" style="fill:#fff"/><ellipse ry="6.8" rx="8.7" cy="136.2" cx="102.5" style="fill:#28170b"/><path d="M97 117.7c-4.5 1.7 3.9 2.3 8.4 4.9 4.4 2.5-4.6 5.4-7.7 7-3 1.6.3 3.4 5.6 4 4.4.4.9 3.9-1.9 3.7-3.8-.2-1.6-3 1.3-2.5-3.1-1.1-5.4 2.5-1.6 2.9 3.8.4 7.8-4.3 3.4-4.7-5.2-.5-8.1-1.4-5-3.1 3-1.6 12.1-5 7.7-7.5-4.4-2.5-12.9-2.6-8.7-4.9 4.2-2.2 3.6-2.9 3.6-2.9s-.6 1.4-5 3.06z" style="fill:#cecfd2;stroke-width:18.9;"/></g><path id="e" style="fill:#fff;" d="M18.96 13.63c.54.71.05 1.45.04 1.44 0 0 .08-.33.08-.64 0-.46-.12-.8-.12-.8z"/><use href="#e" transform="rotate(-84,20.5,10.35) scale(.75)"/></g></svg>