<?xml version="1.0" encoding="UTF-8" standalone="no"?>
<!-- Created with Inkscape (http://www.inkscape.org/) -->

<svg
   xmlns:dc="http://purl.org/dc/elements/1.1/"
   xmlns:cc="http://creativecommons.org/ns#"
   xmlns:rdf="http://www.w3.org/1999/02/22-rdf-syntax-ns#"
   xmlns:svg="http://www.w3.org/2000/svg"
   xmlns="http://www.w3.org/2000/svg"
   xmlns:sodipodi="http://sodipodi.sourceforge.net/DTD/sodipodi-0.dtd"
   xmlns:inkscape="http://www.inkscape.org/namespaces/inkscape"
   width="210mm"
   height="297mm"
   viewBox="0 0 210 297"
   version="1.1"
   id="svg844"
   inkscape:version="0.92.3 (2405546, 2018-03-11)"
   sodipodi:docname="neco.svg">
  <defs
     id="defs838" />
  <sodipodi:namedview
     id="base"
     pagecolor="#ffffff"
     bordercolor="#666666"
     borderopacity="1.0"
     inkscape:pageopacity="0.0"
     inkscape:pageshadow="2"
     inkscape:zoom="4"
     inkscape:cx="391.51842"
     inkscape:cy="645.19429"
     inkscape:document-units="mm"
     inkscape:current-layer="layer3"
     showgrid="false"
     inkscape:window-width="1920"
     inkscape:window-height="1027"
     inkscape:window-x="-8"
     inkscape:window-y="409"
     inkscape:window-maximized="1" />
  <metadata
     id="metadata841">
    <rdf:RDF>
      <cc:Work
         rdf:about="">
        <dc:format>image/svg+xml</dc:format>
        <dc:type
           rdf:resource="http://purl.org/dc/dcmitype/StillImage" />
        <dc:title></dc:title>
      </cc:Work>
    </rdf:RDF>
  </metadata>
  <g
     inkscape:label="Layer 1"
     inkscape:groupmode="layer"
     id="layer1"
     style="display:inline">
    <path
       id="path26"
       d="m 169.66476,28.274166 c -0.48292,-0.0066 -0.97662,0.0089 -1.47278,0.04341 -3.04673,0.211915 -7.06596,1.914287 -7.88324,2.520775 -1.04416,0.774851 -11.8497,7.673139 -13.55059,21.847246 -1.70089,14.174106 6.77116,35.529614 6.77116,35.529614 C 146.53675,87.081281 137.11998,81.03374 137.11998,81.03374 110.28366,65.15874 81.179501,64.40264 59.067893,70.261269 36.956286,76.119901 0.48165825,103.71245 4.2614202,160.59788 c 3.8138533,57.3985 63.4999988,71.05922 63.4999988,71.05922 0,0 22.144709,4.48773 39.183141,2.41639 17.03844,-2.07133 27.66239,-7.6171 27.66239,-7.6171 0,0 18.84237,-7.08245 33.74264,-32.87397 14.90028,-25.7915 12.09384,-44.30013 12.09384,-44.30013 l 1.73736,-1.33635 1.80403,-0.601 1.00252,0.8015 c 1.00226,0.80181 8.95346,2.13837 8.95346,2.13837 0,0 5.47894,0.60099 6.28075,-1.40353 0.80181,-2.00453 -12.89585,-24.32151 -12.89585,-24.32151 0,0 -0.2001,-0.20011 -1.26918,-4.61006 -1.06907,-4.40995 -5.54591,-13.16302 -5.54591,-13.16302 0,0 2.33827,-17.773683 7.28276,-27.328565 4.94448,-9.554888 9.62215,-10.554912 9.62215,-10.554912 1.87089,-0.267272 6.68125,-1.937867 6.68125,-1.937867 0,0 4.67722,-3.275941 3.34088,-7.88634 -1.33635,-4.6104 -10.15597,-4.944402 -10.15597,-4.944402 0,0 -5.87978,-0.401193 -15.23421,5.478736 -9.35443,5.879931 -11.89385,22.316985 -11.89385,22.316985 0,0 -4.3432,-9.554829 -4.87774,-12.294341 -0.53454,-2.739511 -0.60094,-10.089218 -0.40049,-14.365531 0.20046,-4.276313 2.60558,-7.417079 4.81056,-10.557498 2.20497,-3.140416 5.54571,-4.543456 6.74842,-8.084777 1.20271,-3.541321 -0.38292,-5.487519 -1.70584,-6.810436 -1.07487,-1.07487 -2.9711,-1.514996 -5.06377,-1.543576 z M 134.00182,151.62065 c 0,0 1.33912,3.58511 1.70067,3.96875 0.36155,0.38364 4.91355,2.64568 6.42545,2.45669 1.51191,-0.18899 2.55134,-1.03936 4.63021,-1.22834 2.07887,-0.18899 5.19746,0.37833 6.33139,0.47283 1.13393,0.0945 5.23413,0.205 7.1422,-0.031 1.22842,-0.37797 1.36219,-0.2527 1.36219,-0.2527 0,0 -1.22871,6.4253 -3.0241,9.54361 l -0.80305,0.68522 c 0,0 0.56706,-2.2914 -0.0708,-3.21272 -0.63784,-0.92132 -0.37775,-0.54312 -0.37775,-0.54312 0,0 -0.75618,-1.51206 -1.44126,-1.34669 0,0 -0.11827,-1.7956 -2.83497,-1.44125 0,0 -1.32277,-2.26786 -4.44107,-0.82683 -3.11831,1.44103 -8.74077,4.84283 -10.51254,7.27605 -1.77176,2.43322 -8.88214,13.86729 -9.21287,14.43426 -0.33073,0.56696 -2.33888,4.15737 -2.33888,4.15737 0,0 -5.38624,2.36243 -6.04769,2.7404 l -0.66146,0.37827 c 0,0 -2.26786,-0.0943 -3.96875,-1.13378 -1.7009,-1.03944 -2.55126,-2.64584 -2.55126,-2.64584 0,0 -0.66154,-0.56696 -0.75603,-1.98437 -0.0945,-1.41741 -0.94517,-11.62314 -1.60662,-13.70201 -0.66146,-2.07887 -1.70067,-3.87418 -1.70067,-3.87418 0,0 5.10246,0.56703 10.29963,-1.88981 5.19718,-2.45685 5.38623,-7.27604 5.38623,-7.27604 0,0 1.60677,0.85038 9.0718,-4.72477 z"
       style="fill:#000000;stroke:#000000;stroke-width:0.26458332px;stroke-linecap:butt;stroke-linejoin:miter;stroke-opacity:1"
       inkscape:connector-curvature="0"
       sodipodi:nodetypes="csssccsscscsccccccccccccccscsccsccczscscccccccccccccccccccscc" />
  </g>
  <g
     inkscape:groupmode="layer"
     id="layer3"
     inkscape:label="Layer 3"
     style="display:inline">
    <path
       style="fill:#ffffff;stroke:#000000;stroke-width:0.26458332px;stroke-linecap:butt;stroke-linejoin:miter;stroke-opacity:1"
       d="m 118.70815,153.65253 c 0,0 2.77812,0.841 -2.85845,0.11812 0,0 -0.3071,0.0472 -0.44884,-0.0472 -0.14175,-0.0945 -0.56697,-1.2048 -1.39379,-1.06306 0,0 -1.79539,-1.29934 -3.16555,-5e-5 0,0 -2.15701,-1.73668 -3.43268,0.69654 0,0 -0.44103,0.43735 -1.09242,0.86603 -0.64215,0.051 -1.18156,0.1152 -1.97137,0.13832 l -0.61421,-0.11811 c 0,0 -6.605204,-16.88197 -15.026987,-20.22351 0,0 -3.760666,-11.46684 8.948621,-17.75989 12.518086,-6.19838 27.606156,0.41728 30.239986,8.23997 2.63383,7.82269 0.76194,11.05915 -2.42705,15.93734 -2.47472,1.21764 -6.75558,4.1155 -7.11398,4.42755 -0.3584,0.31205 -2.156,0.72723 -1.48783,3.60038 0,0 -1.321,0.6991 -0.2107,2.09289 0,0 -0.44884,1.70089 1.27567,1.84263 0,0 0.18899,1.18118 0.77958,1.25205"
       id="path1410"
       inkscape:connector-curvature="0"
       sodipodi:nodetypes="ccccccccccszczcccc" />
    <path
       style="display:inline;fill:#3d240b;fill-opacity:1;stroke:#3d240b;stroke-width:0.26458332px;stroke-linecap:butt;stroke-linejoin:miter;stroke-opacity:1"
       d="m 125.77036,129.99126 c 0.45557,-8.51348 -8.87984,-13.82247 -16.96661,-13.49377 -8.08677,0.3287 -17.100975,3.35636 -17.866773,13.98578 -0.176062,2.44377 0.652043,4.22188 1.720579,5.89456 1.148691,0.97462 2.279715,2.32501 3.293937,3.50644 4.131847,2.98216 9.423487,3.96655 11.238817,3.95246 3.06933,-0.0238 17.87386,-0.64846 18.58005,-13.84547 z"
       id="path5119"
       inkscape:connector-curvature="0"
       sodipodi:nodetypes="szsccss" />
  </g>
  <g
     inkscape:groupmode="layer"
     id="layer2"
     inkscape:label="Layer 2"
     style="display:inline" />
  <g
     inkscape:groupmode="layer"
     id="layer5"
     inkscape:label="Layer 4">
    <path
       style="fill:#cecfd2;stroke:#cecfd2;stroke-width:0.26458332px;stroke-linecap:butt;stroke-linejoin:miter;stroke-opacity:1;fill-opacity:1"
       d="m 100.93854,131.50312 c -0.10489,1.4364 2.44387,2.1006 7.0776,1.91823 3.27517,-0.1289 11.48605,-2.75347 6.58151,-7.27604 -4.90454,-4.52257 -17.773683,-2.08509 -15.606114,-6.31183 2.167574,-4.22674 22.098944,-6.58961 20.573134,-12.66205 -1.52581,-6.07244 -8.04269,-5.71786 -14.86384,-7.689537 -6.821148,-1.971679 -8.723226,-4.689706 -7.598747,-6.012622 1.12448,-1.322917 7.035537,-4.218661 9.939867,-4.502334 -5.65862,0.678362 -10.544416,3.342596 -11.668896,4.665513 -1.124479,1.322916 1.935152,4.702401 6.573486,6.244133 4.63833,1.541737 14.09871,1.352507 15.62452,7.424947 1.52581,6.07244 -20.687598,7.04625 -21.333813,12.92664 -0.646216,5.8804 11.329963,2.51686 16.234503,7.03943 4.90454,4.52256 -2.71103,6.78333 -5.9862,6.91224 -4.63373,0.18237 -7.314775,-1.57323 -7.209885,-3.00963 0.10489,-1.43641 8.495845,-2.38681 8.495845,-2.38681 0,0 -6.72808,1.28332 -6.83297,2.71972 z"
       id="path5182"
       inkscape:connector-curvature="0"
       sodipodi:nodetypes="zszzzzscszzzzszcz" />
    <path
       style="fill:#ffffff;stroke:#ffffff;stroke-width:0.26458332px;stroke-linecap:butt;stroke-linejoin:miter;stroke-opacity:1"
       d="m 147.28555,139.98583 c 0,0 0.98222,-3.64823 1.16931,-4.91107 -0.11693,-1.63703 -0.65481,-4.79416 -1.30962,-5.84653 0,0 1.89512,4.25913 1.91766,5.58928 -0.37418,2.0112 -0.72972,2.89245 -1.1927,3.99902 -0.46297,1.10658 -0.58465,1.1693 -0.58465,1.1693 z"
       id="path5216"
       inkscape:connector-curvature="0"
       sodipodi:nodetypes="cccczc" />
    <path
       style="fill:#ffffff;stroke:#ffffff;stroke-width:0.26458332px;stroke-linecap:butt;stroke-linejoin:miter;stroke-opacity:1"
       d="m 152.97854,152.60698 c 0,0 1.58008,-1.39583 2.42198,-1.65308 0.8419,-0.25724 5.11571,0.6022 5.11571,0.6022 0,0 -4.18026,-0.29818 -4.88185,-0.0409 -1.20116,0.29802 -1.93459,0.67344 -2.65584,1.09176 z"
       id="path5218"
       inkscape:connector-curvature="0"
       sodipodi:nodetypes="ccccc" />
  </g>
</svg>
