<svg xmlns="http://www.w3.org/2000/svg" viewBox="0 0 27.3 27.5"><g transform="translate(-13.3 -22.3) scale(.2646)"><path fill="#000" d="M91.7 104.5c-24.3 0-41.6 16.7-41.4 43 .2 23.3 18.7 41 45.8 41.1 23-.3 42.2-17.4 42.3-42.9.6-.2 1-.5 1.6-.8 3.2 1.4 7.4 1.8 8.5 1.2.6-.3-2.2-6.5-6.5-12.6-1.1-3.7-2.4-7.2-3.5-9.3-11.6-11.8-4.7-7-13.3-8.9-8.7-2.2-14.9-10.9-33.6-10.8zm23.8 42.4c2.1 2.7 1.5 2.9 5.8 2.7 2.2-.1-.1.1 7.6.4-.2 2.1-.2 2.4-1.2 4.6-.3-2.5-1.9-2.8-2.9-2.6-2.3-3.1-7.9 4-13.1 12.1-1.4.6-2.4 1-3.2 1.4-1.1 0-1.3 0-1.7 0-1-.1-1.1-1-2-1.7-.2-3.4-.5-8.4-1.9-9.9 1.5.4 8.4-.5 7.8-4.5 1.7.4 4-2 4.7-2.4z"/><path fill="#fff" d="M112.7 135.9c0 5.2-2.8 6.5-4.7 7.5-1.5.8-1 1.2-1 1.8-.2.4-.2.5-.2.7 0 .2.2.5.6.7 0 .3.1.5.1.6-.5 0-.7.1-1.1 0-.5-1.2-2.1-1-2.3-.5-1-.6-1.8.1-1.9.5-.8-.4-1.6 0-1.7.2-2-3.8-3-4.9-8.3-10.4-.2-5.6 4.6-9.5 10.334-9.5 5.6.2 10 3.5 10.166 8.4z"/><ellipse fill="#28170b" cx="102.5" cy="136.2" rx="8.7" ry="6.8"/><path fill="#cecfd2" stroke-width="18.9" d="M97 117.7c-4.5 1.7 3.9 2.3 8.4 4.9 4.4 2.5-4.6 5.4-7.7 7-3 1.6.3 3.4 5.6 4 4.4.4.9 3.9-1.9 3.7-3.8-.2-1.6-3 1.3-2.5-3.1-1.1-5.4 2.5-1.6 2.9 3.8.4 7.8-4.3 3.4-4.7-5.2-.5-8.1-1.4-5-3.1 3-1.6 12.1-5 7.7-7.5-4.4-2.5-12.9-2.6-8.7-4.9 4.2-2.2 3.6-2.9 3.6-2.9s-.6 1.4-5 3.06z"/></g><path d="M18.96 13.63c.54.71.05 1.45.04 1.44 0 0 .08-.33.08-.64 0-.46-.12-.8-.12-.8z" fill="#fff" id="a"/><use transform="rotate(-84 20.5 10.35) scale(.75)" href="#a"/><path d="M19.8 8.3C19.1 6.7 18.8 4.9 19.2 3.2c.3-1.4 1.3-2.5 2.6-3 .6-.2 1.1 0 1.1.6 0 .7-.5 1.2-.9 1.7-.6.8-.9 1.5-.8 2.5.1.9.3 1.8.6 2.6.2-1.4.9-2.8 2.3-3.6.9-.5 1.9-.7 2.8-.3.6.3.4.9 0 1.2-.4.3-.8.4-1.6.8-.7.3-1.2 1-1.5 1.7-.4 1.1-.5 1.9-.2 4.3z" fill="#000"/></svg>