<?xml version="1.0" encoding="UTF-8" standalone="no"?>
<!-- Created with Inkscape (http://www.inkscape.org/) -->

<svg
   xmlns="http://www.w3.org/2000/svg"
   width="49.386135mm"
   height="49.386135mm"
   viewBox="0 0 49.386135 49.386135"
   >
  <g
     inkscape:label="Layer 1"
     inkscape:groupmode="layer"
     id="layer1"
     transform="translate(-67.446718,-103.92575)">
    <path
       style="fill:#ffffff;fill-opacity:1;stroke:#ffffff;stroke-width:0.24884178;stroke-miterlimit:4;stroke-dasharray:none;stroke-opacity:1"
       d="m 90.723593,102.15199 v 11.96154 a 14.58812,14.58812 0 0 1 1.415933,-0.0832 14.58812,14.58812 0 0 1 1.416452,0.0708 v -11.94914 z m -16.297196,6.75049 -2.002462,2.00298 8.453231,8.45323 a 14.58812,14.58812 0 0 1 2.004529,-2.00091 z m 35.426783,0 -8.45324,8.45323 a 14.58812,14.58812 0 0 1 2.0004,2.00504 l 8.4553,-8.45529 z m -44.179736,18.30017 v 2.83187 H 77.63447 a 14.58812,14.58812 0 0 1 -0.0832,-1.41593 14.58812,14.58812 0 0 1 0.07079,-1.41594 z m 40.971146,0 a 14.58812,14.58812 0 0 1 0.0832,1.41594 14.58812,14.58812 0 0 1 -0.0708,1.41593 h 11.94914 v -2.83187 z m -25.765357,10.67377 -8.455298,8.4553 2.002462,2.00246 8.453231,-8.45323 a 14.58812,14.58812 0 0 1 -2.000395,-2.00453 z m 22.522657,0.002 a 14.58812,14.58812 0 0 1 -2.00401,2.00091 l 8.4553,8.4553 2.00246,-2.00246 z m -9.845912,5.24568 a 14.58812,14.58812 0 0 1 -1.416452,0.0827 14.58812,14.58812 0 0 1 -1.415933,-0.0708 v 11.94966 h 2.832385 z"
       id="rect815"
       inkscape:connector-curvature="0"
       clip-path="url(#clipPath916)" />
    <circle
       style="fill:#ffffff;fill-opacity:1;stroke:#ffffff;stroke-width:0.28439844;stroke-miterlimit:4;stroke-dasharray:none;stroke-opacity:1"
       id="path899"
       cx="92.139786"
       cy="128.61882"
       r="11.494878" />
  </g>
</svg>
