<?xml version="1.0" encoding="UTF-8" standalone="no"?>
<!-- Created with Inkscape (http://www.inkscape.org/) -->

<svg
   xmlns:dc="http://purl.org/dc/elements/1.1/"
   xmlns:cc="http://creativecommons.org/ns#"
   xmlns:rdf="http://www.w3.org/1999/02/22-rdf-syntax-ns#"
   xmlns:svg="http://www.w3.org/2000/svg"
   xmlns="http://www.w3.org/2000/svg"
   xmlns:sodipodi="http://sodipodi.sourceforge.net/DTD/sodipodi-0.dtd"
   xmlns:inkscape="http://www.inkscape.org/namespaces/inkscape"
   width="49.386135mm"
   height="49.386135mm"
   viewBox="0 0 49.386135 49.386135"
   version="1.1"
   id="svg8"
   inkscape:version="0.92.3 (2405546, 2018-03-11)"
   sodipodi:docname="sun.svg">
  <defs
     id="defs2">
    <clipPath
       clipPathUnits="userSpaceOnUse"
       id="clipPath916">
      <circle
         style="fill:#ffffff;fill-opacity:1;stroke:#ffffff;stroke-width:0.61093897;stroke-miterlimit:4;stroke-dasharray:none;stroke-opacity:1"
         id="circle918"
         cx="92.139786"
         cy="128.61882"
         r="24.693068" />
    </clipPath>
  </defs>
  <sodipodi:namedview
     id="base"
     pagecolor="#ffffff"
     bordercolor="#666666"
     borderopacity="1.0"
     inkscape:pageopacity="0.0"
     inkscape:pageshadow="2"
     inkscape:zoom="2"
     inkscape:cx="43.89088"
     inkscape:cy="59.754371"
     inkscape:document-units="mm"
     inkscape:current-layer="layer1"
     showgrid="false"
     inkscape:pagecheckerboard="true"
     fit-margin-top="0"
     fit-margin-left="0"
     fit-margin-right="0"
     fit-margin-bottom="0"
     inkscape:window-width="1920"
     inkscape:window-height="1027"
     inkscape:window-x="-8"
     inkscape:window-y="426"
     inkscape:window-maximized="1" />
  <metadata
     id="metadata5">
    <rdf:RDF>
      <cc:Work
         rdf:about="">
        <dc:format>image/svg+xml</dc:format>
        <dc:type
           rdf:resource="http://purl.org/dc/dcmitype/StillImage" />
        <dc:title></dc:title>
      </cc:Work>
    </rdf:RDF>
  </metadata>
  <g
     inkscape:label="Layer 1"
     inkscape:groupmode="layer"
     id="layer1"
     transform="translate(-67.446718,-103.92575)">
    <path
       style="fill:#ffffff;fill-opacity:1;stroke:#ffffff;stroke-width:0.24884178;stroke-miterlimit:4;stroke-dasharray:none;stroke-opacity:1"
       d="m 90.723593,102.15199 v 11.96154 a 14.58812,14.58812 0 0 1 1.415933,-0.0832 14.58812,14.58812 0 0 1 1.416452,0.0708 v -11.94914 z m -16.297196,6.75049 -2.002462,2.00298 8.453231,8.45323 a 14.58812,14.58812 0 0 1 2.004529,-2.00091 z m 35.426783,0 -8.45324,8.45323 a 14.58812,14.58812 0 0 1 2.0004,2.00504 l 8.4553,-8.45529 z m -44.179736,18.30017 v 2.83187 H 77.63447 a 14.58812,14.58812 0 0 1 -0.0832,-1.41593 14.58812,14.58812 0 0 1 0.07079,-1.41594 z m 40.971146,0 a 14.58812,14.58812 0 0 1 0.0832,1.41594 14.58812,14.58812 0 0 1 -0.0708,1.41593 h 11.94914 v -2.83187 z m -25.765357,10.67377 -8.455298,8.4553 2.002462,2.00246 8.453231,-8.45323 a 14.58812,14.58812 0 0 1 -2.000395,-2.00453 z m 22.522657,0.002 a 14.58812,14.58812 0 0 1 -2.00401,2.00091 l 8.4553,8.4553 2.00246,-2.00246 z m -9.845912,5.24568 a 14.58812,14.58812 0 0 1 -1.416452,0.0827 14.58812,14.58812 0 0 1 -1.415933,-0.0708 v 11.94966 h 2.832385 z"
       id="rect815"
       inkscape:connector-curvature="0"
       clip-path="url(#clipPath916)" />
    <circle
       style="fill:#ffffff;fill-opacity:1;stroke:#ffffff;stroke-width:0.28439844;stroke-miterlimit:4;stroke-dasharray:none;stroke-opacity:1"
       id="path899"
       cx="92.139786"
       cy="128.61882"
       r="11.494878" />
  </g>
</svg>
